<svg height="512" viewBox="0 0 60 60" width="512" xmlns="http://www.w3.org/2000/svg"><g id="Page-1" fill="none" fill-rule="evenodd"><g id="032---Banner-Ads" fill-rule="nonzero"><path id="Shape" d="m59 4v9h-58v-9c0-1.65685425 1.34314575-3 3-3h52c1.6568542 0 3 1.34314575 3 3z" fill="#02a9f4"/><path id="Shape" d="m56 1h-3c1.6568542 0 3 1.34314575 3 3v9h3v-9c0-1.65685425-1.3431458-3-3-3z" fill="#0377bc"/><path id="Shape" d="m59 13v43c0 1.6568542-1.3431458 3-3 3h-52c-1.65685425 0-3-1.3431458-3-3v-43z" fill="#f5f5f5"/><path id="Shape" d="m56 13v43c0 1.6568542-1.3431458 3-3 3h3c1.6568542 0 3-1.3431458 3-3v-43z" fill="#cfd8dc"/><circle id="Oval" cx="7" cy="7" fill="#f44335" r="2"/><circle id="Oval" cx="15" cy="7" fill="#ffdc00" r="2"/><circle id="Oval" cx="23" cy="7" fill="#a4c400" r="2"/><rect id="Rectangle-path" fill="#3f51b5" height="4" rx="2" width="14" x="41" y="5"/><rect id="Rectangle-path" fill="#e91e63" height="14" rx="1" width="50" x="5" y="17"/><path id="Shape" d="m54 17h-3c.5522847 0 1 .4477153 1 1v12c0 .5522847-.4477153 1-1 1h3c.5522847 0 1-.4477153 1-1v-12c0-.5522847-.4477153-1-1-1z" fill="#ad1457"/><rect id="Rectangle-path" fill="#ffdc00" height="12" rx="1" width="20" x="5" y="35"/><path id="Shape" d="m24 35h-3c.5522847 0 1 .4477153 1 1v10c0 .5522847-.4477153 1-1 1h3c.5522847 0 1-.4477153 1-1v-10c0-.5522847-.4477153-1-1-1z" fill="#fec108"/><g fill="#000"><path id="Shape" d="m56 0h-52c-2.209139 0-4 1.790861-4 4v52c0 2.209139 1.790861 4 4 4h52c2.209139 0 4-1.790861 4-4v-52c0-2.209139-1.790861-4-4-4zm-52 2h52c1.1045695 0 2 .8954305 2 2v8h-56v-8c0-1.1045695.8954305-2 2-2zm52 56h-52c-1.1045695 0-2-.8954305-2-2v-42h56v42c0 1.1045695-.8954305 2-2 2z"/><path id="Shape" d="m7 10c1.65685425 0 3-1.34314575 3-3s-1.34314575-3-3-3-3 1.34314575-3 3 1.34314575 3 3 3zm0-4c.55228475 0 1 .44771525 1 1s-.44771525 1-1 1-1-.44771525-1-1 .44771525-1 1-1z"/><path id="Shape" d="m15 10c1.6568542 0 3-1.34314575 3-3s-1.3431458-3-3-3-3 1.34314575-3 3 1.3431458 3 3 3zm0-4c.5522847 0 1 .44771525 1 1s-.4477153 1-1 1-1-.44771525-1-1 .4477153-1 1-1z"/><path id="Shape" d="m23 10c1.6568542 0 3-1.34314575 3-3s-1.3431458-3-3-3-3 1.34314575-3 3 1.3431458 3 3 3zm0-4c.5522847 0 1 .44771525 1 1s-.4477153 1-1 1-1-.44771525-1-1 .4477153-1 1-1z"/><path id="Shape" d="m43 10h10c1.6568542-.00000002 3-1.34314577 3-3s-1.3431458-2.99999998-3-3h-10c-1.6568542.00000002-3 1.34314577-3 3s1.3431458 2.99999998 3 3zm0-4h10c.5522847 0 1 .44771525 1 1s-.4477153 1-1 1h-10c-.5522847 0-1-.44771525-1-1s.4477153-1 1-1z"/><path id="Shape" d="m54 16h-48c-1.1045695 0-2 .8954305-2 2v12c0 1.1045695.8954305 2 2 2h48c1.1045695 0 2-.8954305 2-2v-12c0-1.1045695-.8954305-2-2-2zm-48 14v-12h48v12z"/><path id="Shape" d="m26.737 21.01c-.3559465-.623656-1.018916-1.0086217-1.737-1.0086217s-1.3810535.3849657-1.737 1.0086217l-3.132 5.495c-.1768465.3104638-.1746289.6916907.0058174 1.0000761s.5117072.4970784.869.495.6863361-.1946123.8631826-.5050761l.852-1.5h4.558l.852 1.5c.1768465.3104638.5058898.5029977.8631826.5050761s.6885537-.1866146.869-.495.1826639-.6896123.0058174-1.0000761zm-2.877 2.99 1.14-2 1.139 2z"/><path id="Shape" d="m35 20h-1c-1.1045695 0-2 .8954305-2 2v4c0 1.1045695.8954305 2 2 2h1c2.209139 0 4-1.790861 4-4s-1.790861-4-4-4zm0 6h-1v-4h1c1.1045695 0 2 .8954305 2 2s-.8954305 2-2 2z"/><path id="Shape" d="m24 48c1.1045695 0 2-.8954305 2-2v-10c0-1.1045695-.8954305-2-2-2h-18c-1.1045695 0-2 .8954305-2 2v10c0 1.1045695.8954305 2 2 2zm-18-11.235 15.387 9.235h-15.387zm18 8.471-15.387-9.236h15.387z"/><path id="Shape" d="m29 36h7c.5522847 0 1-.4477153 1-1s-.4477153-1-1-1h-7c-.5522847 0-1 .4477153-1 1s.4477153 1 1 1z"/><path id="Shape" d="m54 34h-14c-.5522847 0-1 .4477153-1 1s.4477153 1 1 1h14c.5522847 0 1-.4477153 1-1s-.4477153-1-1-1z"/><path id="Shape" d="m54 38h-6c-.5522847 0-1 .4477153-1 1s.4477153 1 1 1h6c.5522847 0 1-.4477153 1-1s-.4477153-1-1-1z"/><path id="Shape" d="m29 40h15c.5522847 0 1-.4477153 1-1s-.4477153-1-1-1h-15c-.5522847 0-1 .4477153-1 1s.4477153 1 1 1z"/><path id="Shape" d="m54 42h-14c-.5522847 0-1 .4477153-1 1s.4477153 1 1 1h14c.5522847 0 1-.4477153 1-1s-.4477153-1-1-1z"/><path id="Shape" d="m29 44h7c.5522847 0 1-.4477153 1-1s-.4477153-1-1-1h-7c-.5522847 0-1 .4477153-1 1s.4477153 1 1 1z"/><path id="Shape" d="m29 48h11c.5522847 0 1-.4477153 1-1s-.4477153-1-1-1h-11c-.5522847 0-1 .4477153-1 1s.4477153 1 1 1z"/><path id="Shape" d="m54 50h-18c-.5522847 0-1 .4477153-1 1s.4477153 1 1 1h18c.5522847 0 1-.4477153 1-1s-.4477153-1-1-1z"/><path id="Shape" d="m32 50h-15c-.5522847 0-1 .4477153-1 1s.4477153 1 1 1h15c.5522847 0 1-.4477153 1-1s-.4477153-1-1-1z"/><path id="Shape" d="m6 50c-.55228475 0-1 .4477153-1 1s.44771525 1 1 1h7c.5522847 0 1-.4477153 1-1s-.4477153-1-1-1z"/><path id="Shape" d="m17 54h-11c-.55228475 0-1 .4477153-1 1s.44771525 1 1 1h11c.5522847 0 1-.4477153 1-1s-.4477153-1-1-1z"/></g></g></g></svg>