<svg height="512" viewBox="0 0 128 128" width="512" xmlns="http://www.w3.org/2000/svg"><g><rect fill="#7075e0" height="83.582" rx="4" width="124.5" x="1.75" y="22.209"/><circle cx="38.735" cy="64" fill="#efefef" r="26.985"/><path d="m17.3 80.383a26.974 26.974 0 0 0 42.874 0l-1.966-4.155a7 7 0 0 0 -6.327-4.006h-26.29a7 7 0 0 0 -6.327 4.006z" fill="#61c7d2"/><rect fill="#61c7d2" height="20.35" rx="8.677" width="17.354" x="30.058" y="44.866"/><path d="m77.75 37.015h38.5v10.008h-38.5z" fill="#f4ad47"/><g fill="#5860bf"><path d="m116.25 59.764h-38.5a1.75 1.75 0 0 1 0-3.5h38.5a1.75 1.75 0 0 1 0 3.5z"/><path d="m110.375 70.754h-26.75a1.75 1.75 0 0 1 0-3.5h26.75a1.75 1.75 0 0 1 0 3.5z"/><path d="m116.25 81.745h-38.5a1.75 1.75 0 0 1 0-3.5h38.5a1.75 1.75 0 0 1 0 3.5z"/><path d="m110.375 92.735h-26.75a1.75 1.75 0 0 1 0-3.5h26.75a1.75 1.75 0 0 1 0 3.5z"/></g></g></svg>